HIERARCHY
ROOT Hips
{
	OFFSET -0.179506 -22.333345 2.821913
	CHANNELS 6 Xposition Yposition Zposition Zrotation Yrotation Xrotation 
	JOINT LeftUpLeg
	{
		OFFSET 6.951974 -9.140623 -0.681533
		CHANNELS 3 Zrotation Yrotation Xrotation
		JOINT LeftLeg
		{
			OFFSET 3.427654 -37.519855 -0.449580
			CHANNELS 3 Zrotation Yrotation Xrotation
			JOINT LeftFoot
			{
				OFFSET -1.359570 -39.796059 -4.369333
				CHANNELS 3 Zrotation Yrotation Xrotation
				JOINT LeftToe
				{
					OFFSET 2.635814 -5.579078 11.928840
					CHANNELS 3 Zrotation Yrotation Xrotation
					End Site
					{
						OFFSET 0.000000 0.000000 0.000000
					}
				}
			}
		}
	}
	JOINT RightUpLeg
	{
		OFFSET -6.767048 -9.052170 -0.431982
		CHANNELS 3 Zrotation Yrotation Xrotation
		JOINT RightLeg
		{
			OFFSET -3.829005 -38.256897 -0.885003
			CHANNELS 3 Zrotation Yrotation Xrotation
			JOINT RightFoot
			{
				OFFSET 1.577377 -39.841461 -4.231180
				CHANNELS 3 Zrotation Yrotation Xrotation
				JOINT RightToe
				{
					OFFSET -2.537174 -4.814398 12.334795
					CHANNELS 3 Zrotation Yrotation Xrotation
					End Site
					{
						OFFSET 0.000000 0.000000 0.000000
					}
				}
			}
		}
	}
	JOINT Spine
	{
		OFFSET -0.253288 10.896323 -2.669631
		CHANNELS 3 Zrotation Yrotation Xrotation
		JOINT Spine1
		{
			OFFSET 0.548704 13.518043 0.109247
			CHANNELS 3 Zrotation Yrotation Xrotation
			JOINT Spine2
			{
				OFFSET 0.145701 5.292222 2.542457
				CHANNELS 3 Zrotation Yrotation Xrotation
				JOINT Neck
				{
					OFFSET -0.277840 21.387037 -4.285703
					CHANNELS 3 Zrotation Yrotation Xrotation
					JOINT Head
					{
						OFFSET 0.515184 6.496960 5.134897
						CHANNELS 3 Zrotation Yrotation Xrotation
						End Site
						{
							OFFSET 0.000000 0.000000 0.000000
						}
					}
				}
				JOINT LeftShoulder
				{
					OFFSET 7.884473 12.174932 -3.408961
					CHANNELS 3 Zrotation Yrotation Xrotation
					JOINT LeftArm
					{
						OFFSET 9.097692 3.046888 -0.886815
						CHANNELS 3 Zrotation Yrotation Xrotation
						JOINT LeftForeArm
						{
							OFFSET 25.961220 -1.277207 -2.745643
							CHANNELS 3 Zrotation Yrotation Xrotation
							JOINT LeftHand
							{
								OFFSET 24.923361 0.898606 -0.117091
								CHANNELS 3 Zrotation Yrotation Xrotation
								End Site
								{
									OFFSET 0.000000 0.000000 0.000000
								}
							}
						}
					}
				}
				JOINT RightShoulder
				{
					OFFSET -8.175920 11.883285 -3.861528
					CHANNELS 3 Zrotation Yrotation Xrotation
					JOINT RightArm
					{
						OFFSET -9.601238 3.255117 -0.914307
						CHANNELS 3 Zrotation Yrotation Xrotation
						JOINT RightForeArm
						{
							OFFSET -25.374195 -1.332924 -2.140099
							CHANNELS 3 Zrotation Yrotation Xrotation
							JOINT RightHand
							{
								OFFSET -25.529810 0.777228 -0.555919
								CHANNELS 3 Zrotation Yrotation Xrotation
								End Site
								{
									OFFSET 0.000000 0.000000 0.000000
								}
							}
						}
					}
				}
			}
		}
	}
}
MOTION
Frames: 13
Frame Time: 0.033333
0.178601 104.562958 56.979954 -3.482487 45.746591 -5.276506 -5.752936 -10.593487 5.256600 -5.315752 -41.298992 16.632192 -4.706616 -3.163692 -8.122538 3.880091 0.600422 0.463284 -0.429441 12.099875 -13.964904 0.925321 23.193421 11.273986 6.488238 -2.657567 -1.466436 4.204362 -2.292171 1.199681 1.876409 -0.359738 7.220994 4.885938 -2.987592 5.630176 -0.767778 -0.131697 -2.028778 -1.938422 10.005583 2.567954 -2.946094 3.399396 3.372570 -20.683860 2.537058 2.096025 -53.841839 -5.640475 11.947025 -0.896462 -12.376356 11.796743 -1.738751 -2.649656 5.446293 15.824919 2.587136 -0.347139 48.817381 9.585992 10.143454 -5.081501 10.677897 -13.659756 1.540927 -0.170774 -12.854470 
-0.177547 104.839523 57.925297 -3.307955 49.818691 -4.895020 -4.776444 -10.015502 4.900044 -5.111341 -40.598269 16.540305 -5.502968 -3.378258 -7.552998 3.919945 0.557721 0.442435 -0.618429 11.576084 -13.476251 0.998395 22.787622 11.249886 5.320209 -3.994952 -1.370900 4.408372 -2.347774 1.187502 2.038414 -0.364385 7.027767 4.781569 -3.109153 5.594871 -0.729381 -0.255180 -2.149319 -1.855230 10.233017 2.660838 -2.951986 3.595226 3.547390 -20.587956 2.224017 2.114076 -54.471854 -5.638536 12.181304 -1.394381 -12.349700 12.676361 -2.195581 -2.746250 5.635614 15.402948 2.839500 -0.602937 50.105923 9.946278 11.217150 -5.187734 12.222780 -11.693945 1.816431 0.161535 -12.551516 
0.037855 105.089249 59.072304 -3.679939 54.114278 -4.546073 -3.583649 -9.643804 4.379238 -4.954641 -40.139455 16.606678 -6.252805 -3.440424 -7.087264 4.208585 0.605938 0.544181 -0.496238 11.457437 -12.879117 0.858054 22.757812 11.014381 3.852724 -5.753561 -1.382958 4.766691 -2.491255 1.257789 2.227342 -0.276187 6.452734 4.890504 -3.382360 5.859463 -0.690323 -0.209203 -2.489072 -1.628380 10.618418 3.014751 -3.125887 3.716116 3.859235 -20.387183 1.545225 2.209731 -55.237824 -5.695299 12.549268 -1.759752 -12.421154 13.338248 -2.811967 -2.751232 6.147778 14.921928 3.515208 -0.920214 51.355359 10.664485 12.290795 -4.996970 13.643304 -9.375984 2.679942 0.341701 -12.007932 
0.175990 105.311150 59.863823 -3.788363 58.779615 -4.346741 -2.559722 -9.197033 3.829902 -4.943858 -39.456725 16.770174 -6.909682 -3.891565 -6.671048 4.263245 0.636044 0.607615 -0.680634 11.006048 -12.280044 0.943950 22.556471 11.178681 2.706830 -7.501885 -1.383509 4.972799 -2.549516 1.324675 2.103712 -0.143395 6.188741 4.867538 -3.646498 5.937477 -0.668170 -0.240128 -2.755201 -1.309447 10.548563 3.223998 -2.976156 3.718137 4.508051 -20.260596 0.893072 2.087870 -55.766877 -6.190032 13.092470 -2.159735 -12.797475 13.970028 -2.351064 -2.966261 6.658410 14.810243 3.961188 -1.176164 52.128755 10.995488 13.235347 -4.476224 15.320670 -7.458640 2.942842 0.586338 -11.166460 
0.034606 105.515892 60.595425 -3.598998 63.671999 -4.148341 -1.700221 -8.623462 3.433346 -4.442935 -38.606465 16.298252 -7.476381 -4.166480 -6.135634 4.145126 0.633477 0.589686 -0.892155 10.209797 -11.562600 1.040985 21.651090 11.291132 1.696764 -9.183093 -1.404016 5.056860 -2.592727 1.418548 2.256673 -0.046880 5.950542 4.839668 -3.852704 5.925197 -0.685714 -0.268201 -2.956299 -1.108906 10.204129 3.442525 -2.660613 3.594068 4.721514 -19.911513 0.208826 2.013649 -56.510541 -6.868133 13.786933 -2.488265 -13.450330 14.772229 -2.233327 -3.457865 6.927753 14.372138 4.162376 -1.320397 52.743378 10.887357 13.755706 -4.083720 16.428407 -6.424471 3.157115 0.877468 -10.916996 
-0.262630 105.683838 61.167515 -3.293739 69.134227 -4.048627 -0.977643 -7.879137 2.991286 -3.961348 -37.133359 15.957069 -7.650977 -3.814355 -5.975245 4.170778 0.638374 0.554911 -1.120990 9.349019 -10.840166 1.142490 20.690118 11.709112 0.591550 -11.085522 -1.352182 5.071983 -2.589223 1.480071 2.364475 -0.004753 5.767061 4.777114 -4.053608 5.895174 -0.700211 -0.378572 -3.035025 -0.924855 9.833305 3.546832 -2.487960 3.338152 5.076189 -19.635003 -0.353946 2.038186 -57.022298 -7.746324 14.394126 -2.759717 -14.367243 15.586829 -1.889696 -4.082922 6.791420 13.986472 4.362035 -1.330438 52.937088 10.964814 14.049335 -3.617472 17.342796 -5.824302 3.358414 1.049713 -11.335695 
-0.813697 105.806473 61.876923 -2.851023 74.462482 -4.052659 -0.136653 -7.219561 2.580270 -3.656352 -35.315999 15.848503 -7.621208 -3.421984 -6.199389 4.198675 0.657861 0.507553 -1.179004 8.430242 -9.922476 1.218073 19.652605 11.898249 -0.210082 -12.873786 -1.417117 5.069619 -2.583354 1.540817 2.301836 0.152660 5.725069 4.599278 -4.129481 5.870462 -0.761660 -0.412440 -3.058857 -0.706333 9.162441 3.479567 -2.095620 2.924822 5.272698 -19.389545 -0.941837 1.948565 -57.447803 -8.860424 14.773419 -2.932482 -15.200099 16.050402 -1.640217 -4.490757 6.930558 13.622762 4.564901 -1.414785 53.485805 10.841986 14.291435 -3.206963 17.834928 -5.083552 3.668643 1.134030 -10.925550 
-1.166638 105.889709 62.533962 -1.895647 79.557233 -3.475382 0.471727 -6.604529 2.161269 -3.517747 -33.124125 15.927828 -7.372666 -2.423555 -6.579249 4.237632 0.647778 0.366506 -1.368098 7.439884 -9.121465 1.465362 18.461548 12.218790 -0.991531 -14.578012 -1.569328 4.963796 -2.602393 1.641913 2.211268 0.290506 5.624133 4.441869 -4.144964 5.720296 -0.854851 -0.375993 -2.952059 -0.662507 8.326465 3.341545 -1.689144 2.540750 5.437079 -19.252489 -1.352801 1.931557 -57.809675 -9.927401 15.245194 -3.061416 -16.426026 16.923604 -1.149224 -4.893810 6.940128 13.512796 4.645664 -1.255209 53.511744 10.768427 14.336380 -2.584853 17.709292 -4.253488 3.722995 1.141891 -9.919995 
-1.601925 105.954300 63.567574 0.699407 84.906699 -1.244467 1.142740 -5.986136 1.445650 -3.552665 -30.214550 16.695633 -6.829708 -0.877071 -7.163737 4.326055 0.645007 0.206691 -1.262268 6.424335 -8.197218 1.535271 16.737353 12.221932 -1.842969 -16.321300 -1.856669 4.899343 -2.563640 1.716328 2.171867 0.435688 5.699255 4.358268 -4.269416 5.479777 -0.885477 -0.384641 -2.865600 -0.622459 7.685436 3.068018 -1.356764 2.232302 5.677842 -19.033474 -1.842051 2.022863 -58.166818 -11.088066 15.572393 -3.379092 -17.437696 18.017258 -0.912691 -5.234362 6.989624 13.418095 4.695052 -1.127463 53.553275 10.752032 14.396003 -1.976004 16.907817 -3.331230 4.141625 1.076074 -8.873529 
-2.324611 106.009171 64.791382 42.785980 89.325555 40.406776 1.557718 -5.589788 0.591589 -3.936033 -27.455979 18.297654 -5.920348 1.367585 -8.101292 4.479197 0.586505 0.038357 -1.023848 5.529763 -7.383010 1.547049 15.113878 11.839709 -2.482898 -17.945481 -2.027390 4.910231 -2.549474 1.669652 2.284839 0.514727 5.897754 4.251634 -4.281984 5.246120 -0.919676 -0.466813 -2.720873 -0.700322 7.244600 2.689790 -0.954962 2.462657 5.865442 -19.055851 -2.082019 2.109817 -58.505536 -12.082876 15.852559 -3.496867 -18.563940 18.745791 -0.663498 -5.541478 6.706178 13.525483 4.619147 -0.907729 53.220241 10.551741 14.234486 -1.689075 16.234034 -2.874597 4.554662 0.854210 -8.021258 
-3.133403 106.066238 65.978508 169.667146 85.525070 166.849894 1.808078 -5.234671 -0.280457 -4.084193 -24.670142 19.951180 -5.313626 2.940134 -8.862029 4.688091 0.552195 0.038474 -0.743163 4.782176 -6.721559 1.461817 13.635495 11.567416 -3.178219 -19.782814 -1.874541 4.891531 -2.487024 1.647426 2.306133 0.624467 6.192158 4.100488 -4.300640 4.823849 -0.895531 -0.552214 -2.537503 -0.739266 7.056597 2.186313 -0.535710 2.865993 5.968609 -19.134393 -2.272764 2.184969 -58.637141 -12.929429 16.092099 -3.827483 -19.828935 19.730983 -0.280537 -5.640229 6.860550 13.798454 4.427110 -0.679011 52.552104 10.252031 13.981553 -1.220942 15.579887 -2.315150 4.786492 0.637190 -6.740499 
-3.695659 106.129745 67.250648 173.289780 80.419509 170.223091 1.955888 -4.632604 -1.205345 -4.015859 -21.056424 21.720272 -4.768545 4.369771 -9.259212 4.871835 0.523707 0.125591 -0.402733 3.834789 -5.884828 1.219960 11.841390 10.715374 -3.878293 -21.593773 -1.682370 4.793488 -2.426370 1.702091 2.274820 0.748941 6.359973 4.029104 -4.431167 4.511926 -0.868758 -0.624351 -2.432784 -0.725306 6.765028 1.729144 -0.061408 3.383989 6.086486 -19.078731 -2.526866 2.385342 -58.893446 -13.696837 16.271725 -4.106002 -20.429606 20.861905 -0.067825 -5.608719 7.193338 13.977508 4.171763 -0.375588 51.985712 9.804249 13.670274 -0.940923 14.968225 -1.771333 4.856102 0.469178 -5.570632 
-4.382561 106.199799 68.436165 175.045568 75.507991 171.764439 2.056648 -3.902901 -2.367078 -3.749139 -16.987189 23.792422 -4.180443 6.088587 -9.861496 5.053316 0.524906 0.229955 0.006374 2.967148 -5.458561 1.060570 10.029313 10.146217 -4.436825 -23.282894 -1.246798 4.672513 -2.402858 1.719615 2.287358 0.826338 6.612718 3.934211 -4.481200 4.084034 -0.780527 -0.681106 -2.147391 -0.713314 6.609080 1.210215 0.302813 4.227838 6.068428 -19.119080 -2.582469 2.428839 -58.961976 -14.168737 16.493162 -4.327949 -21.588167 21.920713 -0.110658 -5.582666 7.456339 14.361426 3.681353 -0.155984 51.044659 9.237977 13.278471 -0.849222 14.516143 -1.295121 5.088631 0.129997 -4.357161 
